<?xml version="1.0" standalone="no"?>
<!DOCTYPE svg PUBLIC "-//W3C//DTD SVG 20010904//EN"
 "http://www.w3.org/TR/2001/REC-SVG-20010904/DTD/svg10.dtd">
<svg version="1.0" xmlns="http://www.w3.org/2000/svg"
 width="1294.000000pt" height="615.000000pt" viewBox="0 0 1294.000000 615.000000"
 preserveAspectRatio="xMidYMid meet">

<g transform="translate(0.000000,615.000000) scale(0.100000,-0.100000)"
fill="#000000" stroke="none">
<path d="M5235 5914 c-38 -8 -117 -38 -175 -66 l-105 -50 -422 -421 c-232
-231 -419 -425 -416 -430 3 -6 1 -7 -4 -4 -12 8 -36 -17 -26 -26 3 -4 11 -2
18 3 8 7 12 5 12 -5 0 -8 -4 -12 -8 -9 -4 2 -11 -1 -16 -8 -11 -19 -11 -58 0
-65 6 -3 7 -2 4 4 -3 5 0 10 7 10 7 0 13 -6 13 -13 0 -7 -4 -11 -8 -8 -4 2
-11 -1 -16 -8 -11 -19 -11 -58 0 -65 6 -3 7 -2 4 4 -3 5 0 10 7 10 7 0 13 -6
13 -13 0 -7 -4 -11 -8 -8 -4 2 -11 -1 -16 -8 -11 -19 -11 -58 0 -65 6 -3 7 -2
4 4 -3 5 0 10 7 10 7 0 13 -6 13 -13 0 -7 -4 -11 -8 -8 -4 2 -11 -1 -16 -8
-11 -19 -11 -58 0 -65 6 -3 7 -2 4 4 -3 5 0 10 7 10 7 0 13 -6 13 -13 0 -7 -4
-11 -8 -8 -4 2 -11 -1 -16 -8 -11 -19 -11 -58 0 -65 6 -3 7 -2 4 4 -3 5 0 10
7 10 7 0 13 -6 13 -13 0 -7 -4 -11 -8 -8 -4 2 -11 -1 -16 -8 -11 -19 -11 -58
0 -65 6 -3 7 -2 4 4 -3 5 0 10 7 10 7 0 13 -6 13 -13 0 -7 -4 -11 -8 -8 -4 2
-11 -1 -16 -8 -11 -19 -11 -58 0 -65 6 -3 7 -2 4 4 -3 5 0 10 7 10 7 0 13 -6
13 -13 0 -7 -4 -11 -8 -8 -4 2 -11 -1 -16 -8 -11 -19 -11 -58 0 -65 6 -3 7 -2
4 4 -3 5 0 10 7 10 7 0 13 -6 13 -13 0 -7 -4 -11 -8 -8 -4 2 -11 -1 -16 -8
-11 -19 -11 -58 0 -65 6 -3 7 -2 4 4 -3 5 0 10 7 10 7 0 13 -6 13 -13 0 -7 -4
-11 -8 -8 -4 2 -11 -1 -16 -8 -11 -19 -11 -58 0 -65 6 -3 7 -2 4 4 -3 5 0 10
7 10 7 0 13 -6 13 -13 0 -7 -4 -11 -8 -8 -4 2 -11 -1 -16 -8 -11 -19 -11 -58
0 -65 6 -3 7 -2 4 4 -3 5 0 10 7 10 7 0 13 -6 13 -13 0 -7 -4 -11 -8 -8 -4 2
-11 -1 -16 -8 -11 -19 -11 -58 0 -65 6 -3 7 -2 4 4 -3 5 0 10 7 10 7 0 13 -6
13 -13 0 -7 -4 -11 -8 -8 -4 2 -11 -1 -16 -8 -11 -19 -11 -58 0 -65 6 -3 7 -2
4 4 -3 5 0 10 7 10 7 0 13 -6 13 -13 0 -7 -4 -11 -8 -8 -4 2 -11 -1 -16 -8
-11 -19 -11 -58 0 -65 6 -3 7 -2 4 4 -3 5 0 10 7 10 7 0 13 -6 13 -13 0 -7 -4
-11 -8 -8 -4 2 -11 -1 -16 -8 -11 -19 -11 -58 0 -65 6 -3 7 -2 4 4 -3 5 0 10
7 10 7 0 13 -6 13 -13 0 -7 -4 -11 -8 -8 -4 2 -11 -1 -16 -8 -11 -19 -11 -58
0 -65 6 -3 7 -2 4 4 -3 5 0 10 7 10 7 0 13 -6 13 -13 0 -7 -4 -11 -8 -8 -4 2
-11 -1 -16 -8 -11 -19 -11 -58 0 -65 6 -3 7 -2 4 4 -3 5 0 10 7 10 7 0 13 -6
13 -13 0 -7 -4 -11 -8 -8 -4 2 -11 -1 -16 -8 -11 -19 -11 -58 0 -65 6 -3 7 -2
4 4 -3 5 0 10 7 10 7 0 13 -6 13 -13 0 -7 -4 -11 -8 -8 -4 2 -11 -1 -16 -8
-11 -19 -11 -58 0 -65 6 -3 7 -2 4 4 -3 5 0 10 7 10 7 0 13 -6 13 -13 0 -7 -4
-11 -8 -8 -4 2 -11 -1 -16 -8 -11 -19 -11 -58 0 -65 6 -3 7 -2 4 4 -3 5 0 10
7 10 7 0 13 -6 13 -13 0 -7 -4 -11 -8 -8 -4 2 -11 -1 -16 -8 -11 -19 -11 -58
0 -65 6 -3 7 -2 4 4 -3 5 0 10 7 10 7 0 13 -6 13 -13 0 -7 -4 -11 -8 -8 -4 2
-11 -1 -16 -8 -11 -19 -11 -58 0 -65 6 -3 7 -2 4 4 -3 5 0 10 7 10 7 0 13 -6
13 -13 0 -7 -4 -11 -8 -8 -4 2 -11 -1 -16 -8 -11 -19 -11 -58 0 -65 6 -3 7 -2
4 4 -3 5 0 10 7 10 7 0 13 -6 13 -13 0 -7 -4 -11 -8 -8 -4 2 -11 -1 -16 -8
-11 -19 -11 -58 0 -65 6 -3 7 -2 4 4 -3 5 0 10 7 10 7 0 13 -6 13 -13 0 -7 -4
-11 -8 -8 -4 2 -11 -1 -16 -8 -11 -19 -11 -58 0 -65 6 -3 7 -2 4 4 -3 5 0 10
7 10 7 0 13 -6 13 -13 0 -7 -4 -11 -8 -8 -4 2 -11 -1 -16 -8 -11 -19 -11 -58
0 -65 6 -3 7 -2 4 4 -3 5 0 10 7 10 7 0 13 -6 13 -13 0 -7 -4 -11 -8 -8 -4 2
-11 -1 -16 -8 -11 -19 -11 -58 0 -65 6 -3 7 -2 4 4 -3 5 1 10 9 10 19 0 -167
-189 -264 -267 -231 -188 -557 -225 -826 -94 -40 20 -97 54 -127 76 -72 53
1935 -1957 2030 -2034 325 -261 774 -229 1059 77 135 145 204 321 203 525 0
170 -44 317 -134 443 -18 26 -383 400 -810 830 l-775 784 755 754 c415 415
774 779 797 809 358 460 122 1126 -442 1245 -85 19 -247 18 -337 -1z"/>
<path d="M7521 5919 c-297 -58 -535 -287 -607 -585 -23 -91 -23 -266 -1 -357
20 -79 71 -194 117 -264 18 -26 384 -400 813 -830 l781 -782 -110 -113 -109
-113 0 -1098 0 -1097 971 972 c884 886 976 980 1018 1053 70 121 97 216 103
361 8 179 -27 317 -117 458 -27 42 -354 378 -1077 1105 -571 574 -1072 1073
-1113 1109 -94 81 -244 156 -355 177 -83 16 -243 18 -314 4z m919 -3033 c0 -2
-8 -10 -17 -17 -16 -13 -17 -12 -4 4 13 16 21 21 21 13z m0 -81 c0 -2 -6 -8
-13 -14 -10 -8 -14 -7 -14 2 0 8 6 14 14 14 7 0 13 -1 13 -2z m0 -80 c0 -2 -6
-8 -13 -14 -10 -8 -14 -7 -14 2 0 8 6 14 14 14 7 0 13 -1 13 -2z m0 -80 c0 -2
-6 -8 -13 -14 -10 -8 -14 -7 -14 2 0 8 6 14 14 14 7 0 13 -1 13 -2z m0 -60 c0
-2 -6 -8 -13 -14 -10 -8 -14 -7 -14 2 0 8 6 14 14 14 7 0 13 -1 13 -2z m0 -80
c0 -2 -6 -8 -13 -14 -10 -8 -14 -7 -14 2 0 8 6 14 14 14 7 0 13 -1 13 -2z m0
-80 c0 -2 -6 -8 -13 -14 -10 -8 -14 -7 -14 2 0 8 6 14 14 14 7 0 13 -1 13 -2z
m0 -80 c0 -2 -6 -8 -13 -14 -10 -8 -14 -7 -14 2 0 8 6 14 14 14 7 0 13 -1 13
-2z m0 -80 c0 -2 -6 -8 -13 -14 -10 -8 -14 -7 -14 2 0 8 6 14 14 14 7 0 13 -1
13 -2z m0 -80 c0 -2 -6 -8 -13 -14 -10 -8 -14 -7 -14 2 0 8 6 14 14 14 7 0 13
-1 13 -2z m0 -80 c0 -2 -6 -8 -13 -14 -10 -8 -14 -7 -14 2 0 8 6 14 14 14 7 0
13 -1 13 -2z m0 -80 c0 -2 -6 -8 -13 -14 -10 -8 -14 -7 -14 2 0 8 6 14 14 14
7 0 13 -1 13 -2z m0 -80 c0 -2 -6 -8 -13 -14 -10 -8 -14 -7 -14 2 0 8 6 14 14
14 7 0 13 -1 13 -2z m0 -80 c0 -2 -6 -8 -13 -14 -10 -8 -14 -7 -14 2 0 8 6 14
14 14 7 0 13 -1 13 -2z m0 -80 c0 -2 -6 -8 -13 -14 -10 -8 -14 -7 -14 2 0 8 6
14 14 14 7 0 13 -1 13 -2z m0 -80 c0 -2 -6 -8 -13 -14 -10 -8 -14 -7 -14 2 0
8 6 14 14 14 7 0 13 -1 13 -2z m0 -80 c0 -2 -6 -8 -13 -14 -10 -8 -14 -7 -14
2 0 8 6 14 14 14 7 0 13 -1 13 -2z m0 -80 c0 -2 -6 -8 -13 -14 -10 -8 -14 -7
-14 2 0 8 6 14 14 14 7 0 13 -1 13 -2z m0 -80 c0 -2 -6 -8 -13 -14 -10 -8 -14
-7 -14 2 0 8 6 14 14 14 7 0 13 -1 13 -2z m0 -80 c0 -2 -6 -8 -13 -14 -10 -8
-14 -7 -14 2 0 8 6 14 14 14 7 0 13 -1 13 -2z m0 -80 c0 -2 -6 -8 -13 -14 -10
-8 -14 -7 -14 2 0 8 6 14 14 14 7 0 13 -1 13 -2z m0 -80 c0 -2 -6 -8 -13 -14
-10 -8 -14 -7 -14 2 0 8 6 14 14 14 7 0 13 -1 13 -2z m0 -80 c0 -2 -6 -8 -13
-14 -10 -8 -14 -7 -14 2 0 8 6 14 14 14 7 0 13 -1 13 -2z m0 -80 c0 -2 -6 -8
-13 -14 -10 -8 -14 -7 -14 2 0 8 6 14 14 14 7 0 13 -1 13 -2z m0 -80 c0 -2 -6
-8 -13 -14 -10 -8 -14 -7 -14 2 0 8 6 14 14 14 7 0 13 -1 13 -2z m0 -80 c0 -2
-6 -8 -13 -14 -10 -8 -14 -7 -14 2 0 8 6 14 14 14 7 0 13 -1 13 -2z m0 -80 c0
-2 -6 -8 -13 -14 -10 -8 -14 -7 -14 2 0 8 6 14 14 14 7 0 13 -1 13 -2z m0 -80
c0 -2 -6 -8 -13 -14 -10 -8 -14 -7 -14 2 0 8 6 14 14 14 7 0 13 -1 13 -2z"/>
</g>
</svg>
